<svg xmlns="http://www.w3.org/2000/svg" xmlns:xlink="http://www.w3.org/1999/xlink" preserveAspectRatio="xMidYMid" width="15" height="23" viewBox="0 0 15 23">
  <defs>
    <style>
      .cls-1 {
        fill: #fff;
        fill-rule: evenodd;
      }
    </style>
  </defs>
  <path d="M10.709,1.963 C10.892,2.075 11.098,2.238 11.328,2.452 C11.547,2.675 11.763,2.950 11.974,3.276 C12.175,3.584 12.354,3.947 12.510,4.366 C12.638,4.785 12.702,5.274 12.702,5.833 C12.685,6.858 12.454,7.677 12.011,8.292 C11.793,8.591 11.563,8.865 11.320,9.117 C11.050,9.368 10.763,9.624 10.459,9.885 C10.285,10.062 10.124,10.262 9.976,10.486 C9.802,10.719 9.715,10.989 9.715,11.296 C9.715,11.595 9.805,11.841 9.983,12.037 C10.134,12.223 10.282,12.386 10.424,12.526 L11.415,13.322 C12.030,13.816 12.569,14.361 13.033,14.957 C13.470,15.562 13.698,16.354 13.716,17.333 C13.716,18.720 13.091,19.950 11.842,21.021 C10.547,22.130 8.679,22.703 6.237,22.740 C4.193,22.721 2.666,22.293 1.658,21.457 C0.641,20.676 0.132,19.741 0.132,18.654 C0.132,18.123 0.297,17.533 0.628,16.882 C0.949,16.231 1.531,15.660 2.373,15.167 C3.318,14.637 4.311,14.284 5.351,14.107 C6.381,13.958 7.237,13.875 7.918,13.856 C7.708,13.584 7.520,13.294 7.355,12.985 C7.163,12.685 7.067,12.325 7.067,11.903 C7.067,11.650 7.104,11.439 7.177,11.271 C7.241,11.093 7.300,10.929 7.355,10.779 C7.024,10.817 6.711,10.835 6.418,10.835 C4.864,10.817 3.680,10.337 2.865,9.396 C2.013,8.521 1.586,7.501 1.586,6.337 C1.586,4.930 2.190,3.554 3.398,2.408 C4.228,1.737 5.090,1.199 5.985,0.994 C6.870,0.817 7.700,0.603 8.475,0.603 L14.311,0.603 L12.509,1.963 L10.709,1.963 ZM7.767,10.055 C8.535,10.027 9.176,9.757 9.688,9.243 C9.935,8.879 10.094,8.506 10.164,8.123 C10.207,7.741 10.228,7.419 10.228,7.157 C10.228,6.028 9.934,4.889 9.345,3.741 C9.069,3.190 8.706,2.742 8.255,2.397 C7.795,2.070 7.266,1.898 6.668,1.879 C5.877,1.898 5.220,2.210 4.696,2.817 C4.253,3.452 4.042,4.161 4.061,4.945 C4.061,5.981 4.370,7.060 4.988,8.179 C5.287,8.702 5.673,9.145 6.146,9.509 C6.619,9.874 7.159,10.055 7.767,10.055 L7.767,10.055 ZM11.837,18.452 C11.837,17.725 11.595,17.092 11.112,16.552 C10.600,16.039 9.801,15.410 8.714,14.665 C8.528,14.646 8.310,14.637 8.059,14.637 C7.910,14.618 7.529,14.637 6.916,14.693 C6.312,14.777 5.694,14.912 5.062,15.098 C4.913,15.154 4.704,15.238 4.435,15.350 C4.165,15.471 3.891,15.643 3.612,15.867 C3.343,16.100 3.115,16.389 2.929,16.733 C2.716,17.097 2.609,17.535 2.609,18.047 C2.609,19.053 3.073,19.882 4.003,20.535 C4.886,21.187 6.094,21.522 7.627,21.541 C9.002,21.522 10.052,21.224 10.777,20.646 C11.483,20.078 11.837,19.347 11.837,18.452 L11.837,18.452 Z" class="cls-1"/>
</svg>
