<svg xmlns="http://www.w3.org/2000/svg" xmlns:xlink="http://www.w3.org/1999/xlink" preserveAspectRatio="xMidYMid" width="32" height="24" viewBox="0 0 32 24">
  <defs>
    <style>
      .cls-1 {
        fill: #fff;
        fill-rule: evenodd;
      }
    </style>
  </defs>
  <path d="M0.618,16.951 C0.618,16.951 6.842,22.346 11.792,16.998 C11.792,16.998 10.964,16.997 10.433,16.590 C9.949,16.219 9.757,15.439 9.757,15.439 C9.757,15.439 11.297,14.580 10.719,13.932 C10.719,13.932 7.313,13.865 7.123,11.815 L9.123,10.528 C9.123,10.528 8.337,10.908 7.559,10.522 C7.559,10.522 5.540,9.078 5.925,7.600 L7.612,7.429 C7.612,7.429 4.686,5.356 5.503,3.763 C5.503,3.763 5.785,2.393 15.466,8.800 C15.466,8.800 17.173,2.745 20.325,1.414 C20.325,1.414 20.849,1.665 20.849,1.931 C20.849,1.931 21.297,0.973 21.886,0.884 C21.886,0.884 22.599,1.509 22.135,1.866 C22.135,1.866 23.335,1.048 23.920,1.463 C23.920,1.463 23.872,2.190 22.148,3.096 C22.148,3.096 26.623,3.343 28.184,9.289 C28.184,9.289 30.125,9.985 31.947,8.817 C31.947,8.817 32.098,9.696 29.269,10.939 C29.269,10.939 29.533,11.362 31.904,11.040 C31.904,11.040 31.885,12.798 28.134,12.784 C28.134,12.784 24.967,21.931 17.268,23.190 C7.912,24.720 1.340,20.058 0.618,16.951 Z" class="cls-1"/>
</svg>
