<svg xmlns="http://www.w3.org/2000/svg" xmlns:xlink="http://www.w3.org/1999/xlink" preserveAspectRatio="xMidYMid" width="24" height="24" viewBox="0 0 24 24">
  <defs>
    <style>
      .cls-1 {
        fill: #fff;
        fill-rule: evenodd;
      }
    </style>
  </defs>
  <path d="M19.046,23.343 C19.046,13.015 10.620,4.609 0.254,4.609 L0.254,0.142 C13.112,0.142 23.532,10.534 23.532,23.343 L19.046,23.343 ZM15.382,23.343 L10.896,23.343 C10.896,17.492 6.121,12.732 0.254,12.732 L0.254,8.264 C8.613,8.264 15.382,15.019 15.382,23.343 ZM2.997,17.874 C4.513,17.874 5.741,19.098 5.741,20.608 C5.741,22.118 4.513,23.343 2.997,23.343 C1.482,23.343 0.254,22.118 0.254,20.608 C0.254,19.098 1.482,17.874 2.997,17.874 Z" class="cls-1"/>
</svg>
