<?xml version="1.0" encoding="UTF-8"?><!DOCTYPE svg PUBLIC "-//W3C//DTD SVG 1.1//EN" "http://www.w3.org/Graphics/SVG/1.1/DTD/svg11.dtd">
<svg style="display:none" xmlns="http://www.w3.org/2000/svg"><defs><style>.cls-1{fill:#fff;fill-rule:evenodd}</style><style>.cls-1{fill:#fff;fill-rule:evenodd}</style><style>.cls-1{fill:#fff;fill-rule:evenodd}</style><style>.cls-1{fill:#fff;fill-rule:evenodd}</style></defs><symbol id="icon__facebook" viewBox="0 0 14 28" preserveAspectRatio="xMidYMid"><path d="M13.034.952H9.123S3.007.313 3.007 6.657v2.628H.519l-.04 4.992h2.528v13.286h5.799V14.277h3.349l.814-4.992H8.806v-2.03S8.449 5.54 10.511 5.54h2.483l.04-4.588z" class="cls-1"/></symbol><symbol id="icon__google" viewBox="0 0 15 23" preserveAspectRatio="xMidYMid"><path d="M10.709 1.963c.183.112.389.275.619.489a5.507 5.507 0 0 1 1.182 1.914c.128.419.192.908.192 1.467-.017 1.025-.248 1.844-.691 2.459a7.831 7.831 0 0 1-.691.825c-.27.251-.557.507-.861.768a3.994 3.994 0 0 0-.483.601 1.317 1.317 0 0 0-.261.81c0 .299.09.545.268.741.151.186.299.349.441.489l.991.796a9.881 9.881 0 0 1 1.618 1.635c.437.605.665 1.397.683 2.376 0 1.387-.625 2.617-1.874 3.688-1.295 1.109-3.163 1.682-5.605 1.719-2.044-.019-3.571-.447-4.579-1.283C.641 20.676.132 19.741.132 18.654c0-.531.165-1.121.496-1.772.321-.651.903-1.222 1.745-1.715a9.208 9.208 0 0 1 2.978-1.06c1.03-.149 1.886-.232 2.567-.251a6.205 6.205 0 0 1-.563-.871c-.192-.3-.288-.66-.288-1.082 0-.253.037-.464.11-.632l.178-.492a8.233 8.233 0 0 1-.937.056c-1.554-.018-2.738-.498-3.553-1.439-.852-.875-1.279-1.895-1.279-3.059 0-1.407.604-2.783 1.812-3.929.83-.671 1.692-1.209 2.587-1.414C6.87.817 7.7.603 8.475.603h5.836l-1.802 1.36h-1.8zm-2.942 8.092c.768-.028 1.409-.298 1.921-.812.247-.364.406-.737.476-1.12a8.86 8.86 0 0 0 .064-.966c0-1.129-.294-2.268-.883-3.416a3.805 3.805 0 0 0-1.09-1.344 2.83 2.83 0 0 0-1.587-.518c-.791.019-1.448.331-1.972.938a3.478 3.478 0 0 0-.635 2.128c0 1.036.309 2.115.927 3.234.299.523.685.966 1.158 1.33a2.58 2.58 0 0 0 1.621.546zm4.07 8.397c0-.727-.242-1.36-.725-1.9-.512-.513-1.311-1.142-2.398-1.887a6.553 6.553 0 0 0-.655-.028c-.149-.019-.53 0-1.143.056-.604.084-1.222.219-1.854.405-.149.056-.358.14-.627.252-.27.121-.544.293-.823.517a3.051 3.051 0 0 0-.683.866c-.213.364-.32.802-.32 1.314 0 1.006.464 1.835 1.394 2.488.883.652 2.091.987 3.624 1.006 1.375-.019 2.425-.317 3.15-.895.706-.568 1.06-1.299 1.06-2.194z" class="cls-1"/></symbol><symbol id="icon__rss" viewBox="0 0 24 24" preserveAspectRatio="xMidYMid"><path d="M19.046 23.343c0-10.328-8.426-18.734-18.792-18.734V.142c12.858 0 23.278 10.392 23.278 23.201h-4.486zm-3.664 0h-4.486c0-5.851-4.775-10.611-10.642-10.611V8.264c8.359 0 15.128 6.755 15.128 15.079zM2.997 17.874a2.739 2.739 0 0 1 2.744 2.734 2.74 2.74 0 0 1-2.744 2.735 2.74 2.74 0 0 1-2.743-2.735 2.738 2.738 0 0 1 2.743-2.734z" class="cls-1"/></symbol><symbol id="icon__twitter" viewBox="0 0 32 24" preserveAspectRatio="xMidYMid"><path d="M.618 16.951s6.224 5.395 11.174.047c0 0-.828-.001-1.359-.408-.484-.371-.676-1.151-.676-1.151s1.54-.859.962-1.507c0 0-3.406-.067-3.596-2.117l2-1.287s-.786.38-1.564-.006c0 0-2.019-1.444-1.634-2.922l1.687-.171S4.686 5.356 5.503 3.763c0 0 .282-1.37 9.963 5.037 0 0 1.707-6.055 4.859-7.386 0 0 .524.251.524.517 0 0 .448-.958 1.037-1.047 0 0 .713.625.249.982 0 0 1.2-.818 1.785-.403 0 0-.048.727-1.772 1.633 0 0 4.475.247 6.036 6.193 0 0 1.941.696 3.763-.472 0 0 .151.879-2.678 2.122 0 0 .264.423 2.635.101 0 0-.019 1.758-3.77 1.744 0 0-3.167 9.147-10.866 10.406C7.912 24.72 1.34 20.058.618 16.951z" class="cls-1"/></symbol>
</svg>